<svg id="Layer_1" data-name="Layer 1" xmlns="http://www.w3.org/2000/svg" xmlns:xlink="http://www.w3.org/1999/xlink" viewBox="0 0 1920 1080"><defs><style>.cls-1,.cls-2{fill:#000333;}.cls-1{opacity:0.03;}.cls-1,.cls-2,.cls-3,.cls-4{isolation:isolate;}.cls-2{opacity:0.02;}.cls-3{opacity:0.22;}.cls-4{opacity:0.15;}.cls-5,.cls-6{fill-rule:evenodd;}.cls-5{fill:url(#linear-gradient);}.cls-6{fill-opacity:0.02;fill:url(#linear-gradient-2);}</style><linearGradient id="linear-gradient" x1="909.3" y1="-8.49" x2="909.3" y2="1080.61" gradientTransform="matrix(1, 0, 0, -1, 0.79, 1076.86)" gradientUnits="userSpaceOnUse"><stop offset="0" stop-color="#dbdee6"/><stop offset="1" stop-color="#fff"/></linearGradient><linearGradient id="linear-gradient-2" x1="7566.19" y1="347239884.41" x2="7566.19" y2="441727482.09" gradientTransform="matrix(0.11, 0, 0, -0.11, 590.1, 222.31)" gradientUnits="userSpaceOnUse"><stop offset="0" stop-color="#000333"/><stop offset="1" stop-color="#f4f5fa"/></linearGradient></defs><title>Artboard 14</title><path class="cls-1" d="M144.15,1223.33h0c324.7,0,480-265.2,480-592.25h0c0-327-263.3-592.24-588-592.24h0c-324.7,0-480,265.2-480,592.24h0C-443.85,958.13-468.55,1223.33,144.15,1223.33Z"/><path class="cls-2" d="M956.15,917.14h0c270.93,18.52,551-114.19,551-446.2h0c-16.55-388.12-306.3-446.2-551-446.2h0c-244.7,0-443,199.73-443,446.2h0C513.15,717.4,711.45,917.14,956.15,917.14Z"/><path class="cls-3" d="M-55.35,893.47c38.6-76.45,83.4-129.94,117-164.18,108.4-110.69,228.9-153.4,284-172.24,63.7-21.75,76.9-17.22,190-44.31a2669.09,2669.09,0,0,0,264-77.56l-1,458.29Z"/><path class="cls-4" d="M1019.65,253.88a621.13,621.13,0,0,0,82-126.91A620.14,620.14,0,0,0,1147.65-3h239V253.88Z"/><g id="Layer_1-2" data-name="Layer_1"><path class="cls-5" d="M1180.16-2.46c-6.6,44-19.7,76.65-30.1,97.8C1064.4,270.28,759,449,583.85,516.26c-299.9,107.88-430.1,167-552,289.07-27.9,28-85.69,67.59-116,143-22.11,55-23,105.77-21,137h2029V-2.46Z"/></g><g id="Layer_1-3" data-name="Layer_1"><path class="cls-6" d="M1922.15,683.44c-57.87,121-254.84,228.89-372.59,225.17h-23c-377.26,8.53-624-232.66-624-519.76h0q0-23.28,2-46.05c106.87-74.15,202.26-161.12,244.4-247.19,10.39-21.13,23.48-53.74,30.08-97.71h743.12Z"/></g></svg>